<?xml version="1.0" ?><!DOCTYPE svg  PUBLIC '-//W3C//DTD SVG 1.1//EN'  'http://www.w3.org/Graphics/SVG/1.1/DTD/svg11.dtd'><svg enable-background="new 0 0 128 128" version="1.1" viewBox="0 0 128 128" xml:space="preserve" xmlns="http://www.w3.org/2000/svg" xmlns:xlink="http://www.w3.org/1999/xlink"><g id="Layer_1"><rect fill="#F4F5F5" height="1520" opacity="0" width="727.938" x="-59.984" y="-541"/></g><g id="Layer_2"><g><circle cx="64" cy="64" fill="#2597CE" r="64"/><g><defs><circle cx="64" cy="64" id="SVGID_35_" r="64"/></defs><clipPath id="SVGID_2_"><use overflow="visible" xlink:href="#SVGID_35_"/></clipPath><polygon clip-path="url(#SVGID_2_)" fill="#1389C9" points="101.864,27.092 128,53.215 128,128 53.333,128 26.813,101.273      35.004,68.722 26.929,60.646 61.417,27.092 66.786,32.462    "/></g><g><defs><circle cx="64" cy="64" id="SVGID_37_" r="64"/></defs><clipPath id="SVGID_4_"><use overflow="visible" xlink:href="#SVGID_37_"/></clipPath><polygon clip-path="url(#SVGID_4_)" fill="#0082C5" points="26.94,61.284 89.952,124.296 110.11,112.138 124.423,89.992      61.381,27.036    "/></g><path d="M62,57.692C62,60.071,60.071,62,57.692,62H29.308C26.929,62,25,60.071,25,57.692V29.308    C25,26.929,26.929,25,29.308,25h28.385C60.071,25,62,26.929,62,29.308V57.692z" fill="#FFF1E5"/><path d="M103,57.692c0,2.379-1.929,4.308-4.308,4.308H70.308C67.929,62,66,60.071,66,57.692V29.308    C66,26.929,67.929,25,70.308,25h28.385c2.379,0,4.308,1.929,4.308,4.308V57.692z" fill="#FFF1E5"/><path d="M62,98.692c0,2.379-1.929,4.308-4.308,4.308H29.308C26.929,103,25,101.071,25,98.692V70.308    C25,67.929,26.929,66,29.308,66h28.385C60.071,66,62,67.929,62,70.308V98.692z" fill="#FFF1E5"/><path d="M103,98.692c0,2.379-1.929,4.308-4.308,4.308H70.308C67.929,103,66,101.071,66,98.692V70.308    C66,67.929,67.929,66,70.308,66h28.385c2.379,0,4.308,1.929,4.308,4.308V98.692z" fill="#FFF1E5"/><g><defs><path d="M103,57.692c0,2.379-1.929,4.308-4.308,4.308H70.308C67.929,62,66,60.071,66,57.692V29.308      C66,26.929,67.929,25,70.308,25h28.385c2.379,0,4.308,1.929,4.308,4.308V57.692z" id="SVGID_39_"/></defs><clipPath id="SVGID_6_"><use overflow="visible" xlink:href="#SVGID_39_"/></clipPath><polygon clip-path="url(#SVGID_6_)" fill="#DED3CD" points="92.45,42.383 75.898,45.734 93.08,63 103,63 103,52.899    "/></g><g><defs><path d="M103,98.692c0,2.379-1.929,4.308-4.308,4.308H70.308C67.929,103,66,101.071,66,98.692V70.308      C66,67.929,67.929,66,70.308,66h28.385c2.379,0,4.308,1.929,4.308,4.308V98.692z" id="SVGID_41_"/></defs><clipPath id="SVGID_8_"><use overflow="visible" xlink:href="#SVGID_41_"/></clipPath><polygon clip-path="url(#SVGID_8_)" fill="#DED3CD" points="92.607,78.245 79.068,79.263 75.692,81.076 81.266,86.68      75.883,90.391 88.485,103 103,103 102.872,88.613    "/></g><g><defs><path d="M62,98.692c0,2.379-1.929,4.308-4.308,4.308H29.308C26.929,103,25,101.071,25,98.692V70.308      C25,67.929,26.929,66,29.308,66h28.385C60.071,66,62,67.929,62,70.308V98.692z" id="SVGID_43_"/></defs><clipPath id="SVGID_10_"><use overflow="visible" xlink:href="#SVGID_43_"/></clipPath><polygon clip-path="url(#SVGID_10_)" fill="#DED3CD" points="49.8,78.391 37.725,90.465 50.235,103 63,103 63,90.451      50.262,77.728    "/></g><g><defs><path d="M62,57.692C62,60.071,60.071,62,57.692,62H29.308C26.929,62,25,60.071,25,57.692V29.308      C25,26.929,26.929,25,29.308,25h28.385C60.071,25,62,26.929,62,29.308V57.692z" id="SVGID_45_"/></defs><clipPath id="SVGID_12_"><use overflow="visible" xlink:href="#SVGID_45_"/></clipPath><polygon clip-path="url(#SVGID_12_)" fill="#DED3CD" points="44.108,43.932 35.731,45.684 53.027,63 63,63 63,52.952      45.785,35.813    "/></g><g><g><g><path d="M50.386,41.438h-3.949v-3.949c0-1.372-1.122-2.494-2.494-2.494h0c-1.372,0-2.494,1.122-2.494,2.494       v3.949h-3.949c-1.372,0-2.494,1.122-2.494,2.494c0,1.372,1.122,2.494,2.494,2.494h3.949v3.949c0,1.372,1.122,2.494,2.494,2.494       h0c1.372,0,2.494-1.122,2.494-2.494v-3.949h3.949c1.372,0,2.494-1.122,2.494-2.494C52.88,42.56,51.758,41.438,50.386,41.438z" fill="#59515C"/></g></g><g><path d="M90.501,46.426H77.614c-1.372,0-2.494-1.122-2.494-2.494l0,0c0-1.372,1.122-2.494,2.494-2.494h12.887      c1.372,0,2.494,1.122,2.494,2.494l0,0C92.996,45.304,91.873,46.426,90.501,46.426z" fill="#59515C"/></g><g><path d="M50.262,81.255l-9.113,9.112c-0.97,0.97-2.557,0.97-3.527,0l0,0c-0.97-0.97-0.97-2.557,0-3.527      l9.112-9.113c0.97-0.97,2.557-0.97,3.527,0l0,0C51.232,78.698,51.232,80.285,50.262,81.255z" fill="#59515C"/><path d="M41.15,77.728l9.113,9.113c0.97,0.97,0.97,2.557,0,3.527l0,0c-0.97,0.97-2.557,0.97-3.527,0      l-9.112-9.112c-0.97-0.97-0.97-2.557,0-3.527l0,0C38.592,76.758,40.18,76.758,41.15,77.728z" fill="#59515C"/></g><g><g><path d="M90.501,86.107H77.614c-1.372,0-2.494,1.122-2.494,2.494c0,1.372,1.122,2.494,2.494,2.494h12.887       c1.372,0,2.494-1.122,2.494-2.494C92.996,87.229,91.873,86.107,90.501,86.107z M77.614,81.989h12.887       c1.372,0,2.494-1.122,2.494-2.494c0-1.372-1.122-2.494-2.494-2.494H77.614c-1.372,0-2.494,1.122-2.494,2.494       C75.12,80.867,76.242,81.989,77.614,81.989z" fill="#59515C"/></g></g></g></g></g></svg>